<svg width="58" height="60" viewBox="0 0 58 60" fill="none" xmlns="http://www.w3.org/2000/svg">
<path d="M32.8899 32.0505L53.1381 42.6316C55.301 43.7619 55.301 45.5817 53.1381 46.712L32.8899 57.2932C30.7271 58.4234 27.2446 58.4234 25.0817 57.2932L4.83358 46.712C2.6707 45.5817 2.67071 43.7619 4.83358 42.6316L25.0817 32.0505C27.2446 30.9202 30.7271 30.9202 32.8899 32.0505Z" fill="#EEB170"/>
<path d="M32.8899 42.6271L53.1381 32.0459C55.301 30.9156 55.301 29.0958 53.1381 27.9655L32.8899 17.3844C30.7271 16.2541 27.2446 16.2541 25.0817 17.3844L4.83358 27.9655C2.67071 29.0958 2.67071 30.9156 4.83358 32.0459L25.0817 42.6271C27.2446 43.7573 30.7271 43.7573 32.8899 42.6271Z" fill="#FFE3B8"/>
<path d="M32.8899 2.72292L53.1381 13.3041C55.301 14.4343 55.301 16.2542 53.1381 17.3844L32.8899 27.9656C30.7271 29.0958 27.2446 29.0958 25.0817 27.9656L4.83358 17.3844C2.67071 16.2542 2.67071 14.4343 4.83358 13.3041L25.0817 2.72292C27.2446 1.59266 30.7271 1.59266 32.8899 2.72292Z" fill="white"/>
<path d="M29.0469 16.5595C27.6327 16.5595 26.2187 16.8427 25.1351 17.4086L14.9897 22.706L25.1351 28.0042C27.3024 29.136 30.7914 29.136 32.9587 28.0042L43.104 22.706L32.9587 17.4086C31.875 16.8427 30.4611 16.5595 29.0469 16.5595Z" fill="white"/>
</svg>
