<svg width="52" height="52" viewBox="0 0 52 52" fill="none" xmlns="http://www.w3.org/2000/svg">
<path d="M4.90625 0.21875H47.0937C49.6906 0.21875 51.7812 2.30938 51.7812 4.90625V47.0938C51.7812 49.6906 49.6906 51.7813 47.0937 51.7813H4.90625C2.30937 51.7813 0.21875 49.6906 0.21875 47.0938V4.90625C0.21875 2.30938 2.30937 0.21875 4.90625 0.21875Z" fill="white"/>
<path d="M4.92047 0.225342C2.3195 0.225342 0.225586 2.31926 0.225586 4.92022V9.14562H51.8693V4.92022C51.8693 2.31926 49.7754 0.225342 47.1744 0.225342H4.92047Z" fill="#FFE3B8"/>
<path d="M6.89844 15.7535H45.1016C46.4 15.7535 47.4453 16.7989 47.4453 18.0973V25.1797C47.4453 26.4781 46.4 27.5234 45.1016 27.5234H6.89844C5.6 27.5234 4.55469 26.4781 4.55469 25.1797V18.0973C4.55469 16.7989 5.6 15.7535 6.89844 15.7535Z" fill="#EEB170"/>
<path d="M6.89844 32.1598H20.8437C22.1422 32.1598 23.1875 33.2051 23.1875 34.5035V41.5859C23.1875 42.8844 22.1422 43.9297 20.8437 43.9297H6.89844C5.6 43.9297 4.55469 42.8844 4.55469 41.5859V34.5035C4.55469 33.2051 5.6 32.1598 6.89844 32.1598Z" fill="#EEB170"/>
<path d="M31.1563 32.1598H45.1016C46.4 32.1598 47.4453 33.2051 47.4453 34.5035V41.5859C47.4453 42.8844 46.4 43.9297 45.1016 43.9297H31.1563C29.8578 43.9297 28.8125 42.8844 28.8125 41.5859V34.5035C28.8125 33.2051 29.8578 32.1598 31.1563 32.1598Z" fill="#FFB43F"/>
</svg>
