<svg width="58" height="58" viewBox="0 0 58 58" fill="none" xmlns="http://www.w3.org/2000/svg">
<path d="M57.125 24.7686V53.036C57.125 55.6329 55.0344 57.7235 52.4375 57.7235H25.3672C22.7703 57.7235 20.6797 55.6329 20.6797 53.036V24.7686C20.6797 22.1717 22.7703 20.0811 25.3672 20.0811H52.4375C55.0344 20.0811 57.125 22.1717 57.125 24.7686Z" fill="#EEB170"/>
<path d="M19.4492 0.875C24.3754 0.875 29.0998 2.83192 32.5832 6.31526C36.0665 9.7986 38.0234 14.523 38.0234 19.4492C38.0234 24.3754 36.0665 29.0998 32.5832 32.5832C29.0998 36.0665 24.3754 38.0234 19.4492 38.0234C14.523 38.0234 9.7986 36.0665 6.31526 32.5832C2.83192 29.0998 0.875 24.3754 0.875 19.4492C0.875 14.523 2.83192 9.7986 6.31526 6.31526C9.7986 2.83192 14.523 0.875 19.4492 0.875Z" fill="#FFE3B8"/>
<path d="M25.4087 20.1141C22.8078 20.1141 20.7139 22.2081 20.7139 24.809V38.0436C25.315 37.7381 29.6387 35.7346 32.8464 32.4217C36.054 29.1089 37.917 24.7228 38.0739 20.1141H25.4087Z" fill="white"/>
</svg>
