<svg width="120" height="120" viewBox="0 0 120 120" fill="none" xmlns="http://www.w3.org/2000/svg">
<g clip-path="url(#clip0_384_3207)">
<path d="M2.98242 111.347V93.8849H9.24383L12.7113 109.102H13.1603V93.8849H16.4033V111.347H10.1419L6.67441 96.13H6.22538V111.347H2.98242Z" fill="white"/>
<path d="M26.9784 111.696C24.7831 111.696 23.0369 111.098 21.7397 109.9C20.4426 108.686 19.794 106.957 19.794 104.711V100.52C19.794 98.2754 20.4426 96.5541 21.7397 95.3567C23.0369 94.1427 24.7831 93.5356 26.9784 93.5356C29.1736 93.5356 30.9198 94.1427 32.217 95.3567C33.5142 96.5541 34.1628 98.2754 34.1628 100.52V104.711C34.1628 106.957 33.5142 108.686 32.217 109.9C30.9198 111.098 29.1736 111.696 26.9784 111.696ZM26.9784 108.753C28.209 108.753 29.1653 108.395 29.8471 107.68C30.529 106.965 30.8699 106.009 30.8699 104.811V100.421C30.8699 99.2233 30.529 98.267 29.8471 97.5519C29.1653 96.8368 28.209 96.4793 26.9784 96.4793C25.7643 96.4793 24.8081 96.8368 24.1096 97.5519C23.4277 98.267 23.0868 99.2233 23.0868 100.421V104.811C23.0868 106.009 23.4277 106.965 24.1096 107.68C24.8081 108.395 25.7643 108.753 26.9784 108.753Z" fill="white"/>
<path d="M40.4518 111.347L36.0115 93.8849H39.4041L43.0961 109.227H43.4453L47.1373 93.8849H50.53L46.0896 111.347H40.4518Z" fill="white"/>
<path d="M53.1284 111.347V93.8849H64.354V96.8784H56.4213V101.044H63.6556V104.038H56.4213V108.353H64.5037V111.347H53.1284Z" fill="white"/>
<path d="M67.4401 111.347V93.8849H70.733V108.353H78.7156V111.347H67.4401Z" fill="white"/>
<path d="M83.1133 111.347V96.8784H78.0244V93.8849H91.4951V96.8784H86.4062V111.347H83.1133Z" fill="white"/>
<path d="M98.7267 111.347V105.335L92.7896 93.8849H96.4566L100.149 101.369H100.598L104.29 93.8849H107.957L102.02 105.335V111.347H98.7267Z" fill="white"/>
<path d="M110.302 111.347V93.8849H113.595V111.347H110.302Z" fill="white"/>
<rect x="33.7886" y="20.1641" width="24.6546" height="67.3219" rx="12.3273" transform="rotate(-27.0372 33.7886 20.1641)" fill="#CACACA"/>
<rect x="47.9609" y="6.85693" width="24.0856" height="76.5579" rx="12.0428" transform="rotate(38.7899 47.9609 6.85693)" fill="white"/>
<rect x="101.104" y="6.85693" width="24.0856" height="76.5579" rx="12.0428" transform="rotate(38.7899 101.104 6.85693)" fill="white"/>
</g>
<defs>
<clipPath id="clip0_384_3207">
<rect width="120" height="120" fill="white"/>
</clipPath>
</defs>
</svg>
