<svg width="24" height="24" viewBox="0 0 24 24" fill="none" xmlns="http://www.w3.org/2000/svg">
<path d="M16.9502 16.95L19.5852 5.957M12.0002 12L18.5862 5.414M7.05024 7.05L18.0432 4.415M4.92924 19.071C8.83424 22.976 15.1662 22.976 19.0712 19.071L4.92924 4.929C1.02424 8.834 1.02424 15.166 4.92924 19.071V19.071ZM22.0002 4C22.0002 4.53043 21.7895 5.03914 21.4145 5.41421C21.0394 5.78929 20.5307 6 20.0002 6C19.4698 6 18.9611 5.78929 18.586 5.41421C18.211 5.03914 18.0002 4.53043 18.0002 4C18.0002 3.46957 18.211 2.96086 18.586 2.58579C18.9611 2.21071 19.4698 2 20.0002 2C20.5307 2 21.0394 2.21071 21.4145 2.58579C21.7895 2.96086 22.0002 3.46957 22.0002 4V4Z" stroke="#E9862E" stroke-width="2" stroke-linecap="round" stroke-linejoin="round"/>
</svg>
