<svg width="70" height="62" viewBox="0 0 70 62" fill="none" xmlns="http://www.w3.org/2000/svg">
<path d="M1.73975 60.9524V50.7662H5.39223L7.41492 59.6428H7.67685V50.7662H9.56858V60.9524H5.91609L3.8934 52.0759H3.63147V60.9524H1.73975Z" fill="white"/>
<path d="M15.7374 61.1562C14.4568 61.1562 13.4382 60.8069 12.6815 60.1084C11.9248 59.4003 11.5465 58.3913 11.5465 57.0817V54.637C11.5465 53.3273 11.9248 52.3233 12.6815 51.6248C13.4382 50.9166 14.4568 50.5625 15.7374 50.5625C17.0179 50.5625 18.0366 50.9166 18.7932 51.6248C19.5499 52.3233 19.9283 53.3273 19.9283 54.637V57.0817C19.9283 58.3913 19.5499 59.4003 18.7932 60.1084C18.0366 60.8069 17.0179 61.1562 15.7374 61.1562ZM15.7374 59.4391C16.4553 59.4391 17.0131 59.2305 17.4108 58.8133C17.8086 58.3962 18.0074 57.8384 18.0074 57.1399V54.5788C18.0074 53.8803 17.8086 53.3225 17.4108 52.9053C17.0131 52.4882 16.4553 52.2796 15.7374 52.2796C15.0292 52.2796 14.4714 52.4882 14.0639 52.9053C13.6662 53.3225 13.4673 53.8803 13.4673 54.5788V57.1399C13.4673 57.8384 13.6662 58.3962 14.0639 58.8133C14.4714 59.2305 15.0292 59.4391 15.7374 59.4391Z" fill="white"/>
<path d="M23.5969 60.9524L21.0067 50.7662H22.9857L25.1394 59.7155H25.3431L27.4968 50.7662H29.4758L26.8856 60.9524H23.5969Z" fill="white"/>
<path d="M30.9916 60.9524V50.7662H37.5399V52.5124H32.9124V54.9426H37.1324V56.6888H32.9124V59.2062H37.6272V60.9524H30.9916Z" fill="white"/>
<path d="M39.3401 60.9524V50.7662H41.2609V59.2062H45.9174V60.9524H39.3401Z" fill="white"/>
<path d="M48.4828 60.9524V52.5124H45.5142V50.7662H53.3721V52.5124H50.4036V60.9524H48.4828Z" fill="white"/>
<path d="M57.5906 60.9524V57.4455L54.1272 50.7662H56.2663L58.42 55.1317H58.6819L60.8356 50.7662H62.9747L59.5114 57.4455V60.9524H57.5906Z" fill="white"/>
<path d="M64.3429 60.9524V50.7662H66.2637V60.9524H64.3429Z" fill="white"/>
<rect x="19.71" y="7.76257" width="14.3818" height="39.2711" rx="7.19091" transform="rotate(-27.0372 19.71 7.76257)" fill="#CACACA"/>
<rect x="27.9771" width="14.05" height="44.6588" rx="7.02498" transform="rotate(38.7899 27.9771 0)" fill="white"/>
<rect x="58.9775" width="14.05" height="44.6588" rx="7.02498" transform="rotate(38.7899 58.9775 0)" fill="white"/>
</svg>
