<svg width="70" height="70" viewBox="0 0 70 70" fill="none" xmlns="http://www.w3.org/2000/svg">
<path d="M1.73975 64.9524V54.7662H5.39223L7.41492 63.6428H7.67685V54.7662H9.56858V64.9524H5.91609L3.8934 56.0759H3.63147V64.9524H1.73975Z" fill="#DF7517"/>
<path d="M15.7374 65.1562C14.4568 65.1562 13.4382 64.8069 12.6815 64.1084C11.9248 63.4003 11.5465 62.3913 11.5465 61.0817V58.637C11.5465 57.3273 11.9248 56.3233 12.6815 55.6248C13.4382 54.9166 14.4568 54.5625 15.7374 54.5625C17.0179 54.5625 18.0366 54.9166 18.7932 55.6248C19.5499 56.3233 19.9283 57.3273 19.9283 58.637V61.0817C19.9283 62.3913 19.5499 63.4003 18.7932 64.1084C18.0366 64.8069 17.0179 65.1562 15.7374 65.1562ZM15.7374 63.4391C16.4553 63.4391 17.0131 63.2305 17.4108 62.8133C17.8086 62.3962 18.0074 61.8384 18.0074 61.1399V58.5788C18.0074 57.8803 17.8086 57.3225 17.4108 56.9053C17.0131 56.4882 16.4553 56.2796 15.7374 56.2796C15.0292 56.2796 14.4714 56.4882 14.0639 56.9053C13.6662 57.3225 13.4673 57.8803 13.4673 58.5788V61.1399C13.4673 61.8384 13.6662 62.3962 14.0639 62.8133C14.4714 63.2305 15.0292 63.4391 15.7374 63.4391Z" fill="#DF7517"/>
<path d="M23.5969 64.9524L21.0067 54.7662H22.9857L25.1394 63.7155H25.3431L27.4968 54.7662H29.4758L26.8856 64.9524H23.5969Z" fill="#DF7517"/>
<path d="M30.9916 64.9524V54.7662H37.5399V56.5124H32.9124V58.9426H37.1324V60.6888H32.9124V63.2062H37.6272V64.9524H30.9916Z" fill="#DF7517"/>
<path d="M39.3401 64.9524V54.7662H41.2609V63.2062H45.9174V64.9524H39.3401Z" fill="#DF7517"/>
<path d="M48.4828 64.9524V56.5124H45.5142V54.7662H53.3721V56.5124H50.4036V64.9524H48.4828Z" fill="#DF7517"/>
<path d="M57.5906 64.9524V61.4455L54.1272 54.7662H56.2663L58.42 59.1317H58.6819L60.8356 54.7662H62.9747L59.5114 61.4455V64.9524H57.5906Z" fill="#DF7517"/>
<path d="M64.3429 64.9524V54.7662H66.2637V64.9524H64.3429Z" fill="#DF7517"/>
<rect x="19.71" y="11.7626" width="14.3818" height="39.2711" rx="7.19091" transform="rotate(-27.0372 19.71 11.7626)" fill="#EBAB67"/>
<rect x="27.9771" y="4" width="14.05" height="44.6588" rx="7.02498" transform="rotate(38.7899 27.9771 4)" fill="#DF7517"/>
<rect x="58.9775" y="4" width="14.05" height="44.6588" rx="7.02498" transform="rotate(38.7899 58.9775 4)" fill="#DF7517"/>
</svg>
