<svg width="20" height="22" viewBox="0 0 20 22" fill="none" xmlns="http://www.w3.org/2000/svg">
<path d="M10 4.8095C11.0465 4.8095 11.895 3.9565 11.895 2.9045C11.895 1.8535 11.0465 1 10 1C8.9535 1 8.105 1.853 8.105 2.905C8.105 3.9565 8.9535 4.8095 10 4.8095ZM2.895 19.095C3.941 19.095 4.7895 18.2425 4.7895 17.1905C4.7895 16.1385 3.941 15.2855 2.8945 15.2855C1.8485 15.286 1 16.139 1 17.191C1 18.243 1.8485 19.096 2.895 19.096V19.095ZM17.105 19.095C18.1515 19.095 19 18.2425 19 17.1905C19 16.1385 18.1515 15.2855 17.105 15.2855C16.0585 15.2855 15.21 16.1385 15.21 17.1905C15.21 18.2425 16.0585 19.0955 17.105 19.0955V19.095Z" stroke="#E9862E" stroke-width="2" stroke-linejoin="round"/>
<path d="M14.5715 4.15698C15.9229 4.95994 17.042 6.10098 17.8185 7.46777C18.595 8.83457 19.0022 10.38 19 11.952C19 12.241 18.9865 12.526 18.96 12.8075M13.507 20.2875C12.398 20.7591 11.2051 21.0015 10 21C8.75601 21 7.57101 20.7465 6.49301 20.2875M1.04001 12.8075C1.01343 12.5233 1.00008 12.2379 1.00001 11.9525C0.997829 10.3805 1.40503 8.83507 2.18154 7.46827C2.95804 6.10148 4.07708 4.96044 5.42851 4.15748" stroke="#E9862E" stroke-width="2" stroke-linecap="round" stroke-linejoin="round"/>
</svg>
