<svg width="18" height="18" viewBox="0 0 18 18" fill="none" xmlns="http://www.w3.org/2000/svg">
<path d="M16.08 8.28744L9.18747 15.1799C8.34309 16.0243 7.19786 16.4987 6.00372 16.4987C4.80959 16.4987 3.66436 16.0243 2.81997 15.1799C1.97559 14.3356 1.50122 13.1903 1.50122 11.9962C1.50122 10.8021 1.97559 9.65682 2.81997 8.81244L9.71247 1.91994C10.2754 1.35702 11.0389 1.04077 11.835 1.04077C12.6311 1.04077 13.3946 1.35702 13.9575 1.91994C14.5204 2.48286 14.8366 3.24635 14.8366 4.04244C14.8366 4.83853 14.5204 5.60202 13.9575 6.16494L7.05747 13.0574C6.77601 13.3389 6.39427 13.497 5.99622 13.497C5.59818 13.497 5.21643 13.3389 4.93497 13.0574C4.65351 12.776 4.49539 12.3942 4.49539 11.9962C4.49539 11.5981 4.65351 11.2164 4.93497 10.9349L11.3025 4.57494" stroke="#DF7517" stroke-width="1.5" stroke-linecap="round" stroke-linejoin="round"/>
</svg>
