<svg width="60" height="60" viewBox="0 0 60 60" fill="none" xmlns="http://www.w3.org/2000/svg">
<g clip-path="url(#clip0_266_651)">
<path d="M55.2513 8.2843C48.9198 1.95283 38.6545 1.95283 32.323 8.2843L7.07129 33.536L29.9996 56.4643L55.2513 31.2126C61.5828 24.8811 61.5828 14.6158 55.2513 8.2843ZM29.9996 40.6203L22.9153 33.536L40.2449 16.2064C41.5215 14.9298 43.0122 14.7392 43.7871 14.7392C44.562 14.7392 46.0527 14.9298 47.3292 16.2064C48.6059 17.483 48.7964 18.9737 48.7964 19.7485C48.7964 20.5234 48.6058 22.014 47.3292 23.2907L29.9996 40.6203Z" fill="#EEB170"/>
<path d="M4.74801 8.2843C-1.52909 14.5614 -1.58182 24.7044 4.58746 31.048L27.5117 8.12375C21.1681 1.95447 11.0251 2.00721 4.74801 8.2843Z" fill="#FFE3B8"/>
</g>
<defs>
<clipPath id="clip0_266_651">
<rect width="60" height="60" fill="white"/>
</clipPath>
</defs>
</svg>
