<svg width="60" height="60" viewBox="0 0 60 60" fill="none" xmlns="http://www.w3.org/2000/svg">
<g clip-path="url(#clip0_266_641)">
<path d="M39.4605 34.668C39.4605 42.4711 33.135 48.7966 25.332 48.7966C17.5289 48.7966 11.2034 42.4711 11.2034 34.668C11.2034 26.865 17.5289 20.5395 25.332 20.5395C25.7201 20.5395 26.1042 20.5563 26.4844 20.587V9.36246C26.1023 9.34523 25.7182 9.33609 25.332 9.33609C11.3415 9.33609 0 20.6776 0 34.668C0 48.6585 11.3415 60 25.332 60C39.3224 60 50.6639 48.6585 50.6639 34.668C50.6639 34.2818 50.6548 33.8977 50.6375 33.5156H39.413C39.4437 33.8958 39.4605 34.2799 39.4605 34.668Z" fill="#FFE3B8"/>
<path d="M60 30C60 13.4314 46.5686 0 30 0V30H60Z" fill="#EEB170"/>
</g>
<defs>
<clipPath id="clip0_266_641">
<rect width="60" height="60" fill="white"/>
</clipPath>
</defs>
</svg>
