<svg width="60" height="60" viewBox="0 0 60 60" fill="none" xmlns="http://www.w3.org/2000/svg">
<g clip-path="url(#clip0_266_629)">
<path d="M37.4688 22.5312H30L28.8281 30L30 37.4688H37.4688V22.5312Z" fill="#FFE3B8"/>
<path d="M30 0L28.8281 5.31504L30 11.2032C40.3812 11.2032 48.7966 19.6188 48.7966 29.9999C48.7966 40.3809 40.3812 48.7966 30 48.7966L28.8281 54.7187L30 60C46.5686 60 60 46.5686 60 30V0H30Z" fill="#EEB170"/>
<path d="M11.2034 30C11.2034 19.6188 19.6189 11.2034 30 11.2034V0C13.4314 0 0 13.4314 0 30V60H30V48.7966C19.6188 48.7966 11.2034 40.3812 11.2034 30Z" fill="#EEB170"/>
<path d="M22.5312 22.5312H30.0001V37.4689H22.5312V22.5312Z" fill="#FFE3B8"/>
</g>
<defs>
<clipPath id="clip0_266_629">
<rect width="60" height="60" fill="white"/>
</clipPath>
</defs>
</svg>
