<svg width="18" height="22" viewBox="0 0 18 22" fill="none" xmlns="http://www.w3.org/2000/svg">
<path d="M16.5492 9.9969C16.0942 8.97281 15.4328 8.05364 14.6063 7.2969L13.9242 6.67111C13.9011 6.65045 13.8732 6.63578 13.843 6.62841C13.8129 6.62103 13.7814 6.62116 13.7513 6.6288C13.7212 6.63644 13.6935 6.65134 13.6705 6.6722C13.6475 6.69307 13.63 6.71925 13.6195 6.74846L13.3148 7.62268C13.125 8.17111 12.7758 8.73127 12.2812 9.28205C12.2484 9.31721 12.2109 9.32658 12.1852 9.32893C12.1594 9.33127 12.1195 9.32658 12.0844 9.29377C12.0516 9.26565 12.0352 9.22346 12.0375 9.18127C12.1242 7.77033 11.7023 6.17893 10.7789 4.4469C10.0148 3.00783 8.95312 1.88518 7.62656 1.10236L6.65859 0.532834C6.53203 0.457834 6.37031 0.556271 6.37734 0.703927L6.42891 1.82893C6.46406 2.59768 6.375 3.27736 6.16406 3.84221C5.90625 4.53361 5.53594 5.1758 5.0625 5.75236C4.73302 6.15306 4.35959 6.51549 3.94922 6.83283C2.96087 7.5926 2.15722 8.56612 1.59844 9.68049C1.04103 10.8046 0.75068 12.0422 0.75 13.2969C0.75 14.4031 0.967969 15.4742 1.39922 16.4844C1.81562 17.457 2.41654 18.3396 3.16875 19.0836C3.92813 19.8336 4.80938 20.4242 5.79141 20.8344C6.80859 21.261 7.88672 21.4766 9 21.4766C10.1133 21.4766 11.1914 21.261 12.2086 20.8367C13.1882 20.429 14.079 19.8343 14.8312 19.086C15.5906 18.336 16.1859 17.4594 16.6008 16.4867C17.0314 15.4793 17.2523 14.3948 17.25 13.2992C17.25 12.1555 17.0156 11.0446 16.5492 9.9969V9.9969Z" fill="#DF7517"/>
</svg>
