<svg width="24" height="24" viewBox="0 0 24 24" fill="none" xmlns="http://www.w3.org/2000/svg">
<path d="M3 21C2.45 21 1.97933 20.8043 1.588 20.413C1.196 20.021 1 19.55 1 19V12.025C1 11.6917 1.075 11.3833 1.225 11.1C1.375 10.8167 1.58333 10.5833 1.85 10.4L6.85 6.825C7.18333 6.575 7.56667 6.45 8 6.45C8.43333 6.45 8.81667 6.575 9.15 6.825L14.15 10.4C14.4167 10.5833 14.625 10.8167 14.775 11.1C14.925 11.3833 15 11.6917 15 12.025V19C15 19.55 14.8043 20.021 14.413 20.413C14.021 20.8043 13.55 21 13 21H3ZM17 21V11.025C17 10.6917 16.9293 10.3833 16.788 10.1C16.646 9.81667 16.4417 9.58333 16.175 9.4L10 4.95C10 4.41667 10.196 3.95833 10.588 3.575C10.9793 3.19167 11.45 3 12 3H21C21.55 3 22.021 3.19567 22.413 3.587C22.8043 3.979 23 4.45 23 5V19C23 19.55 22.8043 20.021 22.413 20.413C22.021 20.8043 21.55 21 21 21H17ZM6 19H10V14H6V19ZM17 17H19V15H17V17ZM17 13H19V11H17V13ZM17 9H19V7H17V9Z" fill="#DF7517"/>
</svg>
